<svg width="69" height="52" viewBox="0 0 69 52" fill="none" xmlns="http://www.w3.org/2000/svg">
<path d="M0 46C0 42.6863 2.68629 40 6 40H63C66.3137 40 69 42.6863 69 46C69 49.3137 66.3137 52 63 52H6C2.68629 52 0 49.3137 0 46Z" fill="white"/>
<path d="M0 6C0 2.68629 2.68629 0 6 0H63C66.3137 0 69 2.68629 69 6C69 9.31371 66.3137 12 63 12H6C2.68629 12 0 9.31371 0 6Z" fill="white"/>
<path d="M0 26C0 22.6863 2.68629 20 6 20H63C66.3137 20 69 22.6863 69 26C69 29.3137 66.3137 32 63 32H6C2.68629 32 0 29.3137 0 26Z" fill="white"/>
</svg>
