<svg width="152" height="148" viewBox="0 0 152 148" fill="none" xmlns="http://www.w3.org/2000/svg">
<path d="M152 74C152 114.869 118.869 148 78 148C37.1309 148 4 114.869 4 74C4 33.1309 37.1309 0 78 0C118.869 0 152 33.1309 152 74Z" fill="#8B8B8B"/>
<path d="M148 74C148 114.869 114.869 148 74 148C33.1309 148 0 114.869 0 74C0 33.1309 33.1309 0 74 0C114.869 0 148 33.1309 148 74Z" fill="#D9D9D9"/>
<path d="M49 63C49 69.0751 44.0751 74 38 74C31.9249 74 27 69.0751 27 63C27 56.9249 31.9249 52 38 52C44.0751 52 49 56.9249 49 63Z" fill="#9B9B9B"/>
<path d="M123 63C123 69.0751 118.075 74 112 74C105.925 74 101 69.0751 101 63C101 56.9249 105.925 52 112 52C118.075 52 123 56.9249 123 63Z" fill="#9B9B9B"/>
<path fill-rule="evenodd" clip-rule="evenodd" d="M105.389 117.433C85.4254 109.063 63.1474 108.992 43.1354 117.235L38.8513 119L36 111.462L40.2841 109.698C62.1434 100.693 86.4778 100.771 108.284 109.914L112 111.471L109.105 118.991L105.389 117.433Z" fill="#9B9B9B"/>
</svg>
