<svg width="77" height="78" viewBox="0 0 77 78" fill="none" xmlns="http://www.w3.org/2000/svg">
<path fill-rule="evenodd" clip-rule="evenodd" d="M0.5 22.1407V0.5H12.5V11.1631C21.0813 4.0955 32.2742 0.995626 43.2913 2.66428L44.147 2.79388C58.6113 4.98464 70.5165 15.3178 74.7202 29.3301L74.8516 29.768C78.936 43.3827 74.8837 58.1343 64.4172 67.7518C45.35 85.2726 14.6537 78.3682 4.92492 54.3705L2.57129 48.5648L13.6922 44.0564L16.0458 49.8621C22.6282 66.0987 43.3971 70.7702 56.2979 58.9158C63.3794 52.4086 66.1211 42.4278 63.3576 33.2162L63.3576 33.2161L63.2263 32.7783C63.2263 32.7783 63.2263 32.7783 63.2263 32.7783C60.3558 23.2103 52.2266 16.1545 42.3499 14.6586L41.4943 14.529C34.4966 13.4691 27.3967 15.1817 21.6781 19.2406L30.4027 20.5683L28.5973 32.4317L6.44691 29.061C3.02694 28.5406 0.5 25.6 0.5 22.1407Z" fill="white"/>
</svg>
