<svg width="176" height="39" viewBox="0 0 176 39" fill="none" xmlns="http://www.w3.org/2000/svg">
<path d="M3.41278 13V0.636363H8.56831C9.49398 0.636363 10.2687 0.767163 10.8925 1.02876C11.5204 1.29036 11.9913 1.6566 12.3052 2.12749C12.6231 2.59837 12.7821 3.1437 12.7821 3.76349C12.7821 4.23438 12.6835 4.65495 12.4863 5.02521C12.2891 5.39145 12.0174 5.69531 11.6713 5.93679C11.3252 6.17827 10.9247 6.3473 10.4699 6.44389V6.56463C10.969 6.58878 11.4298 6.7236 11.8524 6.9691C12.279 7.21461 12.6211 7.5567 12.8787 7.99538C13.1363 8.43004 13.265 8.94519 13.265 9.54084C13.265 10.2049 13.096 10.7985 12.7579 11.3217C12.4199 11.8409 11.9309 12.2514 11.291 12.5533C10.6511 12.8511 9.8743 13 8.96072 13H3.41278ZM6.40106 10.5913H8.24836C8.89632 10.5913 9.37324 10.4685 9.67911 10.223C9.98901 9.97751 10.144 9.63542 10.144 9.19673C10.144 8.87879 10.0695 8.60511 9.92059 8.37571C9.77168 8.14228 9.56038 7.96319 9.28671 7.83842C9.01304 7.70964 8.68503 7.64524 8.30269 7.64524H6.40106V10.5913ZM6.40106 5.71946H8.05518C8.38117 5.71946 8.67094 5.66513 8.92449 5.55646C9.17805 5.4478 9.37525 5.29084 9.51611 5.08558C9.661 4.88033 9.73344 4.63281 9.73344 4.34304C9.73344 3.9285 9.58654 3.60251 9.29275 3.36506C8.99895 3.1276 8.60252 3.00888 8.10347 3.00888H6.40106V5.71946ZM17.3762 13H14.1646L18.3361 0.636363H22.3144L26.4859 13H23.2743L20.3705 3.75142H20.2739L17.3762 13ZM16.9476 8.13423H23.6606V10.4041H16.9476V8.13423ZM38.4587 5.11577H35.4402C35.4 4.80587 35.3175 4.52616 35.1927 4.27663C35.0679 4.02711 34.9029 3.8138 34.6977 3.63672C34.4924 3.45964 34.2489 3.32481 33.9672 3.23224C33.6895 3.13565 33.3816 3.08736 33.0435 3.08736C32.4439 3.08736 31.9267 3.23426 31.4921 3.52805C31.0614 3.82185 30.7294 4.24645 30.496 4.80185C30.2666 5.35724 30.1519 6.02936 30.1519 6.81818C30.1519 7.6392 30.2686 8.32741 30.502 8.88281C30.7395 9.43419 31.0715 9.85073 31.4981 10.1325C31.9287 10.4102 32.4378 10.549 33.0254 10.549C33.3555 10.549 33.6553 10.5067 33.9249 10.4222C34.1986 10.3377 34.4381 10.215 34.6433 10.054C34.8526 9.88897 35.0237 9.68975 35.1565 9.45632C35.2933 9.21887 35.3879 8.95123 35.4402 8.65341L38.4587 8.67152C38.4064 9.21887 38.2474 9.75817 37.9818 10.2894C37.7202 10.8207 37.36 11.3056 36.9011 11.7443C36.4423 12.179 35.8829 12.5251 35.2229 12.7827C34.5669 13.0402 33.8143 13.169 32.9651 13.169C31.8462 13.169 30.8441 12.9235 29.9587 12.4325C29.0773 11.9375 28.381 11.2171 27.8699 10.2713C27.3588 9.32552 27.1032 8.17448 27.1032 6.81818C27.1032 5.45786 27.3628 4.30481 27.882 3.35902C28.4011 2.41323 29.1034 1.69484 29.9889 1.20383C30.8743 0.712831 31.8663 0.467329 32.9651 0.467329C33.7136 0.467329 34.4059 0.571969 35.0418 0.78125C35.6777 0.986505 36.2371 1.28835 36.72 1.68679C37.203 2.0812 37.5954 2.56617 37.8972 3.14169C38.1991 3.71721 38.3862 4.37524 38.4587 5.11577ZM39.7642 3.06321V0.636363H50.2141V3.06321H46.4652V13H43.5191V3.06321H39.7642ZM51.6735 13V0.636363H60.2943V3.06321H54.6618V5.59872H59.8536V8.0316H54.6618V10.5732H60.2943V13H51.6735ZM62.1657 13V0.636363H67.2729C68.1986 0.636363 68.9975 0.803385 69.6696 1.13743C70.3457 1.46745 70.8669 1.94235 71.2332 2.56214C71.5994 3.17791 71.7825 3.90838 71.7825 4.75355C71.7825 5.6108 71.5954 6.33925 71.2211 6.93892C70.8468 7.53456 70.3156 7.98935 69.6274 8.30327C68.9391 8.61316 68.1242 8.76811 67.1824 8.76811H63.9526V6.41371H66.627C67.0778 6.41371 67.4541 6.35535 67.7559 6.23864C68.0618 6.1179 68.2932 5.93679 68.4502 5.69531C68.6071 5.44981 68.6856 5.13589 68.6856 4.75355C68.6856 4.37121 68.6071 4.05528 68.4502 3.80575C68.2932 3.5522 68.0618 3.36304 67.7559 3.23828C67.45 3.10949 67.0737 3.0451 66.627 3.0451H65.154V13H62.1657ZM69.1263 7.34943L72.2051 13H68.9452L65.9267 7.34943H69.1263ZM76.4098 0.636363V13H73.4216V0.636363H76.4098ZM80.9602 13H77.7485L81.9201 0.636363H85.8984L90.0699 13H86.8583L83.9545 3.75142H83.8579L80.9602 13ZM80.5316 8.13423H87.2446V10.4041H80.5316V8.13423ZM103.167 4.67507C103.099 4.42152 102.998 4.19815 102.865 4.00497C102.732 3.80777 102.569 3.64074 102.376 3.50391C102.183 3.36707 101.962 3.26444 101.712 3.19602C101.463 3.12358 101.189 3.08736 100.891 3.08736C100.291 3.08736 99.7723 3.23224 99.3336 3.52202C98.8989 3.81179 98.5629 4.23437 98.3254 4.78977C98.088 5.34115 97.9692 6.01124 97.9692 6.80007C97.9692 7.59292 98.0839 8.26906 98.3133 8.82848C98.5427 9.3879 98.8748 9.81451 99.3094 10.1083C99.7441 10.4021 100.271 10.549 100.891 10.549C101.438 10.549 101.901 10.4605 102.28 10.2834C102.662 10.1023 102.952 9.84671 103.149 9.51669C103.346 9.18667 103.445 8.7983 103.445 8.35156L104 8.41797H100.994V6.23864H106.324V7.87464C106.324 8.98142 106.089 9.92921 105.618 10.718C105.151 11.5069 104.507 12.1126 103.686 12.5352C102.869 12.9577 101.929 13.169 100.867 13.169C99.6878 13.169 98.6514 12.9135 97.7579 12.4023C96.8645 11.8912 96.1682 11.1628 95.6692 10.217C95.1701 9.26716 94.9206 8.14027 94.9206 6.83629C94.9206 5.82209 95.0715 4.92258 95.3734 4.13778C95.6752 3.34896 96.0958 2.68087 96.6351 2.13352C97.1784 1.58617 97.8062 1.17164 98.5186 0.889914C99.235 0.608191 100.006 0.467329 100.831 0.467329C101.547 0.467329 102.213 0.569957 102.829 0.775213C103.449 0.980469 103.996 1.27024 104.471 1.64453C104.95 2.01882 105.338 2.46354 105.636 2.97869C105.934 3.49384 106.119 4.0593 106.192 4.67507H103.167ZM108.086 13V0.636363H113.193C114.119 0.636363 114.917 0.803385 115.59 1.13743C116.266 1.46745 116.787 1.94235 117.153 2.56214C117.519 3.17791 117.702 3.90838 117.702 4.75355C117.702 5.6108 117.515 6.33925 117.141 6.93892C116.767 7.53456 116.235 7.98935 115.547 8.30327C114.859 8.61316 114.044 8.76811 113.102 8.76811H109.873V6.41371H112.547C112.998 6.41371 113.374 6.35535 113.676 6.23864C113.982 6.1179 114.213 5.93679 114.37 5.69531C114.527 5.44981 114.606 5.13589 114.606 4.75355C114.606 4.37121 114.527 4.05528 114.37 3.80575C114.213 3.5522 113.982 3.36304 113.676 3.23828C113.37 3.10949 112.994 3.0451 112.547 3.0451H111.074V13H108.086ZM115.046 7.34943L118.125 13H114.865L111.847 7.34943H115.046ZM131.011 6.81818C131.011 8.1785 130.749 9.33156 130.226 10.2773C129.703 11.2231 128.995 11.9415 128.101 12.4325C127.212 12.9235 126.214 13.169 125.107 13.169C123.996 13.169 122.996 12.9215 122.106 12.4265C121.217 11.9315 120.511 11.2131 119.987 10.2713C119.468 9.32552 119.209 8.17448 119.209 6.81818C119.209 5.45786 119.468 4.30481 119.987 3.35902C120.511 2.41323 121.217 1.69484 122.106 1.20383C122.996 0.712831 123.996 0.467329 125.107 0.467329C126.214 0.467329 127.212 0.712831 128.101 1.20383C128.995 1.69484 129.703 2.41323 130.226 3.35902C130.749 4.30481 131.011 5.45786 131.011 6.81818ZM127.956 6.81818C127.956 6.01326 127.841 5.3331 127.612 4.7777C127.387 4.2223 127.061 3.80173 126.634 3.51598C126.212 3.23023 125.702 3.08736 125.107 3.08736C124.515 3.08736 124.006 3.23023 123.579 3.51598C123.153 3.80173 122.825 4.2223 122.595 4.7777C122.37 5.3331 122.257 6.01326 122.257 6.81818C122.257 7.62311 122.37 8.30327 122.595 8.85866C122.825 9.41406 123.153 9.83464 123.579 10.1204C124.006 10.4061 124.515 10.549 125.107 10.549C125.702 10.549 126.212 10.4061 126.634 10.1204C127.061 9.83464 127.387 9.41406 127.612 8.85866C127.841 8.30327 127.956 7.62311 127.956 6.81818ZM135.105 13L131.507 0.636363H134.81L136.675 8.73793H136.778L138.909 0.636363H141.601L143.732 8.75604H143.835L145.706 0.636363H149.002L145.41 13H142.531L140.303 5.50213H140.207L137.979 13H135.105ZM149.833 3.06321V0.636363H160.282V3.06321H156.534V13H153.587V3.06321H149.833ZM161.742 13V0.636363H164.73V5.59872H169.602V0.636363H172.584V13H169.602V8.0316H164.73V13H161.742ZM11.8452 23.7415C11.7789 23.0123 11.4839 22.4455 10.9602 22.0412C10.4432 21.6302 9.70407 21.4247 8.7429 21.4247C8.10653 21.4247 7.57623 21.5076 7.15199 21.6733C6.72775 21.839 6.40956 22.0677 6.19744 22.3594C5.98532 22.6444 5.87595 22.9725 5.86932 23.3438C5.85606 23.6487 5.91572 23.9171 6.0483 24.1491C6.1875 24.3812 6.38636 24.5866 6.64489 24.7656C6.91004 24.938 7.22822 25.0904 7.59943 25.223C7.97064 25.3556 8.38826 25.4716 8.85227 25.571L10.6023 25.9688C11.6098 26.1875 12.4981 26.4792 13.267 26.8438C14.0426 27.2083 14.6922 27.6425 15.2159 28.1463C15.7462 28.6501 16.1473 29.2301 16.419 29.8864C16.6908 30.5426 16.83 31.2784 16.8366 32.0938C16.83 33.3797 16.5052 34.4834 15.8622 35.4048C15.2192 36.3262 14.2945 37.0322 13.0881 37.5227C11.8883 38.0133 10.4399 38.2585 8.7429 38.2585C7.0393 38.2585 5.55445 38.0033 4.28835 37.4929C3.02225 36.9825 2.03788 36.2069 1.33523 35.1662C0.632576 34.1255 0.271307 32.8097 0.25142 31.2188H4.96449C5.00426 31.875 5.17992 32.4219 5.49148 32.8594C5.80303 33.2969 6.23059 33.6283 6.77415 33.8537C7.32434 34.0791 7.9607 34.1918 8.68324 34.1918C9.34612 34.1918 9.90956 34.1023 10.3736 33.9233C10.8442 33.7443 11.2055 33.4957 11.4574 33.1776C11.7093 32.8594 11.8385 32.4948 11.8452 32.0838C11.8385 31.6993 11.7192 31.3712 11.4872 31.0994C11.2552 30.821 10.8973 30.5824 10.4134 30.3835C9.93608 30.178 9.32623 29.9891 8.58381 29.8168L6.45597 29.3196C4.69271 28.9152 3.30398 28.2623 2.28977 27.3608C1.27557 26.4527 0.77178 25.2263 0.778409 23.6818C0.77178 22.4223 1.10985 21.3187 1.79261 20.3707C2.47538 19.4228 3.41998 18.6837 4.62642 18.1534C5.83286 17.6231 7.20833 17.358 8.75284 17.358C10.3305 17.358 11.6993 17.6264 12.8594 18.1634C14.026 18.6937 14.9309 19.4394 15.5739 20.4006C16.2169 21.3617 16.545 22.4754 16.5582 23.7415H11.8452ZM24.2443 17.6364V38H19.3224V17.6364H24.2443ZM27.3342 17.6364H33.4293L38.5998 30.2443H38.8384L44.0089 17.6364H50.104V38H45.3114V25.4915H45.1424L40.2504 37.8707H37.1879L32.2958 25.4219H32.1268V38H27.3342V17.6364ZM65.4936 17.6364H70.4055V30.7713C70.4055 32.2893 70.0443 33.6117 69.3217 34.7386C68.5992 35.8589 67.5916 36.7273 66.299 37.3438C65.0064 37.9536 63.505 38.2585 61.7947 38.2585C60.0646 38.2585 58.5533 37.9536 57.2607 37.3438C55.968 36.7273 54.9638 35.8589 54.2479 34.7386C53.532 33.6117 53.174 32.2893 53.174 30.7713V17.6364H58.0959V30.3438C58.0959 31.0464 58.2483 31.6728 58.5533 32.223C58.8648 32.7732 59.299 33.2041 59.8558 33.5156C60.4126 33.8272 61.0589 33.983 61.7947 33.983C62.5305 33.983 63.1735 33.8272 63.7237 33.5156C64.2805 33.2041 64.7147 32.7732 65.0263 32.223C65.3378 31.6728 65.4936 31.0464 65.4936 30.3438V17.6364ZM73.4904 38V17.6364H78.4123V34.0028H86.8839V38H73.4904ZM94.1101 38H88.8203L95.6911 17.6364H102.244L109.114 38H103.825L99.0419 22.767H98.8828L94.1101 38ZM93.4041 29.9858H104.461V33.7244H93.4041V29.9858ZM108.098 21.6335V17.6364H125.309V21.6335H119.135V38H114.282V21.6335H108.098ZM132.635 17.6364V38H127.713V17.6364H132.635ZM154.945 27.8182C154.945 30.0587 154.514 31.9579 153.652 33.5156C152.791 35.0734 151.624 36.2566 150.152 37.0653C148.687 37.8741 147.043 38.2784 145.221 38.2784C143.391 38.2784 141.744 37.8707 140.279 37.0554C138.814 36.2401 137.65 35.0568 136.789 33.5057C135.934 31.9479 135.506 30.0521 135.506 27.8182C135.506 25.5777 135.934 23.6785 136.789 22.1207C137.65 20.563 138.814 19.3797 140.279 18.571C141.744 17.7623 143.391 17.358 145.221 17.358C147.043 17.358 148.687 17.7623 150.152 18.571C151.624 19.3797 152.791 20.563 153.652 22.1207C154.514 23.6785 154.945 25.5777 154.945 27.8182ZM149.914 27.8182C149.914 26.4924 149.725 25.3722 149.347 24.4574C148.976 23.5426 148.439 22.8499 147.736 22.3793C147.04 21.9086 146.202 21.6733 145.221 21.6733C144.246 21.6733 143.408 21.9086 142.705 22.3793C142.002 22.8499 141.462 23.5426 141.084 24.4574C140.713 25.3722 140.527 26.4924 140.527 27.8182C140.527 29.1439 140.713 30.2642 141.084 31.179C141.462 32.0937 142.002 32.7865 142.705 33.2571C143.408 33.7277 144.246 33.9631 145.221 33.9631C146.202 33.9631 147.04 33.7277 147.736 33.2571C148.439 32.7865 148.976 32.0937 149.347 31.179C149.725 30.2642 149.914 29.1439 149.914 27.8182ZM175.15 17.6364V38H170.973L162.87 26.2472H162.74V38H157.819V17.6364H162.054L170.069 29.3693H170.238V17.6364H175.15Z" fill="white"/>
</svg>
